<svg id="Capa_1" enable-background="new 0 0 358.003 358.003" height="512" viewBox="0 0 358.003 358.003" width="512" xmlns="http://www.w3.org/2000/svg"><g><path d="m265.616 165.248v147.759c55.476-7.895 80.812 23.039 80.812 23.039v-220.772c-51.008 7.97-80.812 49.974-80.812 49.974z" fill="#f7be56"/><path d="m286.07 304.622c-23.327 9.342-77.302 32.341-95.215 39.787-17.913 7.447-107.736 18.721-143.116 11.004-35.372-7.71-30.663-22.205-35.342-51.108-3.948-24.357 7.054-76.763 17.531-106.941 1.952-5.617 3.885-10.464 5.702-14.215 11.574-23.935 27.154-73.554 33.075-91.015s27.098-43.617 37.442-47.509c10.352-3.885 33.473-41.399 44.268-44.09 10.809-2.692 12.823 5.058 24.521 16.52 11.69 11.455 18.34 18.657 19.788 24.282s-13.002 12.86-13.002 12.86c16.277 2.169 8.926 25.021 1.058 21.479-7.874-3.535-16.993 1.274-28.637 6.751-11.643 5.477-33.036 7.265-33.036 7.265-4.449 2.877-7.306 6.58-9.17 10.967-5.521 13.022-2.229 32.071-5.558 53.364-4.451 28.47 2.949 90.92 2.949 90.92s5.169 2.738 30.391-23.342c25.221-26.094 73.804-18.434 73.804-18.434 29.625-46.11 72.738-40.618 85.705-37.701 2.457.552 3.834 1.012 3.834 1.012 51.333 21.661 34.24 97.901 24.404 115.449-.43.764-.852 1.424-1.248 1.957-9.456 12.715-16.821 11.395-40.148 20.738z" fill="#fcd462"/><path d="m176.62 56.862c-1.681-.249-3.297-.823-4.778-1.635-1.512-.773-2.799-1.904-4.071-3.015-.604-.595-1.19-1.212-1.775-1.826l-1.57-1.924c-.801-2.386-1.457-4.846-2.096-7.293-.137-.54-.25-1.086-.377-1.629 1.235-.041 2.468-.094 3.698-.185.782-.063 1.564-.118 2.347-.177.919.505 1.735 1.146 2.546 1.791.964.799 1.919 1.612 2.842 2.469 1.873 1.686 3.692 3.436 5.653 5.093-1.396-2.161-3.122-4.067-5.007-5.806-.952-.86-1.962-1.667-3.05-2.366-.763-.496-1.593-.942-2.47-1.225.387-.031.774-.06 1.16-.098 1.272.793 2.683 1.332 4.138 1.646 1.514.262 3.048.332 4.56.212 1.514-.111 2.995-.439 4.442-.834.726-.191 1.438-.431 2.134-.71.698-.269 1.389-.558 2.048-.912-1.422.453-2.87.773-4.313 1.068-1.447.28-2.909.446-4.364.518-1.456.039-2.907-.021-4.324-.283-1.403-.285-2.74-.788-3.979-1.488.712-.993 1.278-2.097 1.708-3.246.484-1.285.802-2.62 1.056-3.96.448-2.69.592-5.433.221-8.134l-.552 4.008c-.194 1.326-.373 2.649-.616 3.959-.44 2.488-1.008 4.921-1.919 7.317l-.06-.034-.134.018c-1.381.181-2.754.423-4.131.631-1.22.193-2.435.425-3.649.668-.449-1.927-.857-3.863-1.186-5.813-.437-2.519-.76-5.057-.952-7.609-.185-2.553-.194-5.114-.055-7.684-.373 2.543-.527 5.128-.471 7.709.097 2.577.286 5.158.666 7.712.801 5.102 1.943 10.144 3.665 15.036l.026.073.04.047 1.685 2.01c.612.626 1.225 1.254 1.857 1.859 1.336 1.133 2.736 2.22 4.335 2.971 1.574.77 3.275 1.337 5.029 1.456 1.74.121 3.533-.072 5.103-.813-1.627.575-3.382.662-5.06.428z" fill="#dc8744"/><g fill="#f7be56"><path d="m326.218 283.885c.396-.533.818-1.193 1.248-1.957-.157-.05-.304-.08-.45-.097-3.947-.464-7.13 4.134-10.28 5.596-4.041 1.863-7.744 1.432-12.146 1.528-21.892.463-42.924 7.546-63.373 14.759-13.451 4.739-26.941 9.606-39.381 16.575-5.963 3.338-11.67 7.159-17.862 10.072-17.416 8.169-37.329 8.562-56.575 8.808-22.373.28-44.738.567-67.111.847-4.653.058-9.368.103-13.866-1.077-11.655-3.059-19.854-14.079-23.019-25.701-3.16-11.63-2.178-23.93-1.168-35.937 1.488-17.683 2.976-35.367 4.465-53.05.75-8.99 1.514-18.043 3.227-26.886-10.477 30.178-21.48 82.584-17.531 106.941 4.679 28.902-.031 43.397 35.342 51.108 35.38 7.716 125.203-3.558 143.116-11.004 17.913-7.447 71.888-30.445 95.215-39.787 23.328-9.344 30.693-8.024 40.149-20.738z"/><path d="m271.701 171.915c9.397-4.197 18.245-4.93 27.528-6.448-12.967-2.917-56.08-8.408-85.705 37.701 0 0-48.584-7.659-73.804 18.434-25.222 26.08-30.391 23.342-30.391 23.342s-7.4-62.45-2.949-90.92c3.328-21.293.037-40.342 5.558-53.364-5.284 2.942-8.549 8.811-10.511 14.627-7.037 20.76-2.223 43.397-1.969 65.321.094 7.327-.347 14.65-.569 21.973-.717 23.67.813 47.395 4.55 70.777 7.339-8.784 14.68-17.554 22.019-26.338 7.905-9.44 15.988-19.059 26.446-25.581 12.397-7.739 27.18-10.545 41.608-12.872 2.46-.401 5.005-.785 7.399-.123 2.259.616 4.162 2.104 6.006 3.557 7.083 5.595 14.159 11.183 21.242 16.778 3.53-12.019 7.193-24.3 14.519-34.466 7.271-10.111 17.758-17.37 29.023-22.398z"/></g></g></svg>